<svg xmlns="http://www.w3.org/2000/svg" xmlns:xlink="http://www.w3.org/1999/xlink" width="500" zoomAndPan="magnify" viewBox="0 0 375 374.999991" height="500" preserveAspectRatio="xMidYMid meet" version="1.0"><defs><g/><clipPath id="34e514306c"><path d="M 78.304688 138.449219 L 131 138.449219 L 131 190 L 78.304688 190 Z M 78.304688 138.449219 " clip-rule="nonzero"/></clipPath><clipPath id="54ef01c4ce"><path d="M 244 185 L 296.554688 185 L 296.554688 236.699219 L 244 236.699219 Z M 244 185 " clip-rule="nonzero"/></clipPath></defs><g clip-path="url(#34e514306c)"><path fill="#4e2780" d="M 80.449219 189.914062 L 78.304688 189.914062 L 78.304688 137.863281 L 130.351562 137.863281 L 130.351562 140.011719 L 80.449219 140.011719 Z M 80.449219 189.914062 " fill-opacity="1" fill-rule="nonzero"/></g><g clip-path="url(#54ef01c4ce)"><path fill="#4e2780" d="M 296.695312 237.132812 L 244.644531 237.132812 L 244.644531 234.984375 L 294.546875 234.984375 L 294.546875 185.082031 L 296.695312 185.082031 Z M 296.695312 237.132812 " fill-opacity="1" fill-rule="nonzero"/></g><g fill="#4e2780" fill-opacity="1"><g transform="translate(124.798727, 172.837641)"><g><path d="M 4.9375 -8.140625 L 14.75 -8.140625 L 14.75 0 L 16.875 0 L 16.875 -16.390625 L 14.75 -16.390625 L 14.75 -9.21875 L 4.9375 -9.21875 L 4.9375 -16.390625 L 2.8125 -16.390625 L 2.8125 0 L 4.9375 0 Z M 4.9375 -8.140625 "/></g></g></g><g fill="#4e2780" fill-opacity="1"><g transform="translate(147.089608, 172.837641)"><g><path d="M 1.875 -16.390625 L 1.875 -6.3125 C 1.875 -5.675781 1.9375 -4.972656 2.0625 -4.203125 C 2.1875 -3.429688 2.484375 -2.710938 2.953125 -2.046875 C 3.421875 -1.378906 4.113281 -0.820312 5.03125 -0.375 C 5.945312 0.0625 7.203125 0.28125 8.796875 0.28125 C 9.796875 0.28125 10.679688 0.125 11.453125 -0.1875 C 12.222656 -0.5 12.867188 -0.925781 13.390625 -1.46875 C 13.921875 -2.019531 14.316406 -2.65625 14.578125 -3.375 C 14.847656 -4.101562 14.984375 -4.882812 14.984375 -5.71875 L 14.984375 -16.390625 L 13.953125 -16.390625 L 13.953125 -6.484375 C 13.953125 -6.140625 13.941406 -5.789062 13.921875 -5.4375 C 13.910156 -5.09375 13.863281 -4.742188 13.78125 -4.390625 C 13.707031 -4.035156 13.585938 -3.6875 13.421875 -3.34375 C 13.253906 -3 13.015625 -2.65625 12.703125 -2.3125 C 12.140625 -1.707031 11.507812 -1.296875 10.8125 -1.078125 C 10.113281 -0.859375 9.378906 -0.75 8.609375 -0.75 C 7.953125 -0.75 7.367188 -0.847656 6.859375 -1.046875 C 6.359375 -1.253906 5.882812 -1.5625 5.4375 -1.96875 C 5.070312 -2.28125 4.796875 -2.59375 4.609375 -2.90625 C 4.421875 -3.21875 4.28125 -3.523438 4.1875 -3.828125 C 4.09375 -4.128906 4.035156 -4.4375 4.015625 -4.75 C 4.003906 -5.0625 4 -5.375 4 -5.6875 L 4 -16.390625 Z M 1.875 -16.390625 "/></g></g></g><g fill="#4e2780" fill-opacity="1"><g transform="translate(166.550503, 172.837641)"><g><path d="M 0.859375 -4.140625 C 0.890625 -3.472656 1.066406 -2.863281 1.390625 -2.3125 C 1.710938 -1.769531 2.148438 -1.304688 2.703125 -0.921875 C 3.253906 -0.535156 3.90625 -0.238281 4.65625 -0.03125 C 5.40625 0.175781 6.222656 0.28125 7.109375 0.28125 C 8.015625 0.28125 8.832031 0.171875 9.5625 -0.046875 C 10.289062 -0.265625 10.910156 -0.578125 11.421875 -0.984375 C 11.929688 -1.390625 12.328125 -1.878906 12.609375 -2.453125 C 12.890625 -3.035156 13.03125 -3.675781 13.03125 -4.375 C 13.03125 -5.34375 12.789062 -6.132812 12.3125 -6.75 C 11.832031 -7.363281 11.226562 -7.878906 10.5 -8.296875 C 9.769531 -8.710938 8.976562 -9.0625 8.125 -9.34375 C 7.28125 -9.625 6.492188 -9.921875 5.765625 -10.234375 C 5.046875 -10.546875 4.441406 -10.898438 3.953125 -11.296875 C 3.472656 -11.703125 3.234375 -12.242188 3.234375 -12.921875 C 3.234375 -13.296875 3.3125 -13.644531 3.46875 -13.96875 C 3.632812 -14.300781 3.878906 -14.585938 4.203125 -14.828125 C 4.523438 -15.066406 4.914062 -15.257812 5.375 -15.40625 C 5.84375 -15.5625 6.382812 -15.640625 7 -15.640625 C 8.007812 -15.640625 8.867188 -15.421875 9.578125 -14.984375 C 10.296875 -14.554688 10.71875 -13.882812 10.84375 -12.96875 L 12.421875 -12.96875 C 12.328125 -13.539062 12.117188 -14.054688 11.796875 -14.515625 C 11.472656 -14.984375 11.0625 -15.375 10.5625 -15.6875 C 10.0625 -16.007812 9.492188 -16.253906 8.859375 -16.421875 C 8.222656 -16.585938 7.5625 -16.671875 6.875 -16.671875 C 6.164062 -16.671875 5.484375 -16.578125 4.828125 -16.390625 C 4.179688 -16.203125 3.613281 -15.925781 3.125 -15.5625 C 2.632812 -15.207031 2.242188 -14.753906 1.953125 -14.203125 C 1.660156 -13.660156 1.515625 -13.035156 1.515625 -12.328125 C 1.515625 -11.410156 1.75 -10.671875 2.21875 -10.109375 C 2.6875 -9.546875 3.273438 -9.078125 3.984375 -8.703125 C 4.703125 -8.328125 5.472656 -8.003906 6.296875 -7.734375 C 7.117188 -7.472656 7.882812 -7.175781 8.59375 -6.84375 C 9.3125 -6.507812 9.90625 -6.097656 10.375 -5.609375 C 10.84375 -5.128906 11.078125 -4.484375 11.078125 -3.671875 C 11.078125 -2.660156 10.703125 -1.921875 9.953125 -1.453125 C 9.210938 -0.984375 8.226562 -0.75 7 -0.75 C 6.019531 -0.75 5.234375 -0.875 4.640625 -1.125 C 4.046875 -1.382812 3.59375 -1.691406 3.28125 -2.046875 C 2.96875 -2.410156 2.753906 -2.785156 2.640625 -3.171875 C 2.535156 -3.554688 2.472656 -3.878906 2.453125 -4.140625 Z M 0.859375 -4.140625 "/></g></g></g><g fill="#4e2780" fill-opacity="1"><g transform="translate(183.789498, 172.837641)"><g><path d="M 16.015625 -16.390625 L 16.015625 -3.859375 L 15.921875 -3.859375 L 2.921875 -16.671875 L 2.8125 -16.671875 L 2.8125 0 L 3.890625 0 L 3.890625 -12.515625 L 3.984375 -12.515625 L 16.96875 0.28125 L 17.09375 0.28125 L 17.09375 -16.390625 Z M 16.015625 -16.390625 "/></g></g></g><g fill="#4e2780" fill-opacity="1"><g transform="translate(206.290878, 172.837641)"><g><path d="M 3.75 -16.390625 L 3.75 0 L 5.875 0 L 5.875 -16.390625 Z M 3.75 -16.390625 "/></g></g></g><g fill="#4e2780" fill-opacity="1"><g transform="translate(218.524767, 172.837641)"><g><path d="M 0.703125 -16.390625 L 6.359375 -6.203125 L 6.359375 0 L 8.5 0 L 8.5 -6.40625 L 14.25 -16.390625 L 12.984375 -16.390625 L 7.984375 -7.75 L 7.890625 -7.75 L 3.109375 -16.390625 Z M 0.703125 -16.390625 "/></g></g></g><g fill="#4e2780" fill-opacity="1"><g transform="translate(236.09119, 172.837641)"><g><path d="M 2.8125 -16.390625 L 2.8125 0 L 13.390625 0 L 13.390625 -1.28125 L 4.9375 -1.28125 L 4.9375 -8.140625 L 12.1875 -8.140625 L 12.1875 -9.21875 L 4.9375 -9.21875 L 4.9375 -15.09375 L 13.390625 -15.09375 L 13.390625 -16.390625 Z M 2.8125 -16.390625 "/></g></g></g><g fill="#4e2780" fill-opacity="1"><g transform="translate(124.386486, 217.019107)"><g><path d="M 2.734375 -15.921875 L 2.734375 0 L 13 0 L 13 -1.25 L 4.796875 -1.25 L 4.796875 -7.90625 L 11.84375 -7.90625 L 11.84375 -8.953125 L 4.796875 -8.953125 L 4.796875 -14.65625 L 13 -14.65625 L 13 -15.921875 Z M 2.734375 -15.921875 "/></g></g></g><g fill="#4e2780" fill-opacity="1"><g transform="translate(140.612163, 217.019107)"><g><path d="M 2.734375 -15.921875 L 2.734375 0 L 4.796875 0 L 4.796875 -7.03125 L 5.796875 -7.03125 C 6.222656 -7.03125 6.578125 -6.988281 6.859375 -6.90625 C 7.140625 -6.832031 7.390625 -6.703125 7.609375 -6.515625 C 7.835938 -6.335938 8.050781 -6.101562 8.25 -5.8125 C 8.445312 -5.53125 8.679688 -5.175781 8.953125 -4.75 L 10.75 -2.09375 C 10.976562 -1.738281 11.203125 -1.414062 11.421875 -1.125 C 11.640625 -0.84375 11.878906 -0.597656 12.140625 -0.390625 C 12.398438 -0.191406 12.691406 -0.0351562 13.015625 0.078125 C 13.335938 0.203125 13.726562 0.265625 14.1875 0.265625 C 14.519531 0.265625 14.789062 0.25 15 0.21875 C 15.21875 0.195312 15.429688 0.125 15.640625 0 L 15.640625 -0.84375 C 15.566406 -0.820312 15.488281 -0.804688 15.40625 -0.796875 C 15.332031 -0.796875 15.257812 -0.796875 15.1875 -0.796875 C 14.863281 -0.796875 14.582031 -0.835938 14.34375 -0.921875 C 14.101562 -1.015625 13.875 -1.148438 13.65625 -1.328125 C 13.445312 -1.503906 13.242188 -1.71875 13.046875 -1.96875 C 12.847656 -2.21875 12.644531 -2.5 12.4375 -2.8125 C 11.800781 -3.738281 11.304688 -4.476562 10.953125 -5.03125 C 10.609375 -5.582031 10.332031 -6.007812 10.125 -6.3125 C 9.925781 -6.625 9.757812 -6.847656 9.625 -6.984375 C 9.5 -7.117188 9.34375 -7.234375 9.15625 -7.328125 L 8.9375 -7.4375 L 8.9375 -7.53125 C 9.664062 -7.570312 10.289062 -7.726562 10.8125 -8 C 11.332031 -8.269531 11.757812 -8.609375 12.09375 -9.015625 C 12.425781 -9.429688 12.664062 -9.878906 12.8125 -10.359375 C 12.96875 -10.835938 13.046875 -11.300781 13.046875 -11.75 C 13.046875 -12.164062 12.96875 -12.613281 12.8125 -13.09375 C 12.65625 -13.582031 12.378906 -14.035156 11.984375 -14.453125 C 11.597656 -14.867188 11.070312 -15.21875 10.40625 -15.5 C 9.738281 -15.78125 8.898438 -15.921875 7.890625 -15.921875 Z M 4.796875 -14.90625 L 7.09375 -14.90625 C 7.664062 -14.90625 8.179688 -14.820312 8.640625 -14.65625 C 9.109375 -14.488281 9.507812 -14.257812 9.84375 -13.96875 C 10.175781 -13.675781 10.425781 -13.320312 10.59375 -12.90625 C 10.769531 -12.5 10.859375 -12.054688 10.859375 -11.578125 C 10.859375 -11.160156 10.78125 -10.742188 10.625 -10.328125 C 10.46875 -9.910156 10.226562 -9.53125 9.90625 -9.1875 C 9.59375 -8.851562 9.203125 -8.578125 8.734375 -8.359375 C 8.273438 -8.148438 7.742188 -8.046875 7.140625 -8.046875 L 4.796875 -8.046875 Z M 4.796875 -14.90625 "/></g></g></g><g fill="#4e2780" fill-opacity="1"><g transform="translate(159.473654, 217.019107)"><g><path d="M 4.796875 -6.640625 C 5.191406 -6.535156 5.613281 -6.445312 6.0625 -6.375 C 6.519531 -6.3125 7.023438 -6.28125 7.578125 -6.28125 C 8.492188 -6.28125 9.304688 -6.40625 10.015625 -6.65625 C 10.734375 -6.914062 11.332031 -7.269531 11.8125 -7.71875 C 12.289062 -8.164062 12.648438 -8.679688 12.890625 -9.265625 C 13.128906 -9.847656 13.25 -10.472656 13.25 -11.140625 C 13.25 -11.773438 13.144531 -12.382812 12.9375 -12.96875 C 12.726562 -13.550781 12.40625 -14.054688 11.96875 -14.484375 C 11.539062 -14.921875 11 -15.269531 10.34375 -15.53125 C 9.6875 -15.789062 8.921875 -15.921875 8.046875 -15.921875 L 2.734375 -15.921875 L 2.734375 0 L 4.796875 0 Z M 4.796875 -14.90625 L 7.1875 -14.90625 C 7.820312 -14.90625 8.378906 -14.789062 8.859375 -14.5625 C 9.347656 -14.34375 9.75 -14.046875 10.0625 -13.671875 C 10.382812 -13.304688 10.625 -12.890625 10.78125 -12.421875 C 10.945312 -11.960938 11.03125 -11.503906 11.03125 -11.046875 C 11.03125 -10.609375 10.957031 -10.164062 10.8125 -9.71875 C 10.664062 -9.269531 10.429688 -8.863281 10.109375 -8.5 C 9.796875 -8.132812 9.394531 -7.835938 8.90625 -7.609375 C 8.425781 -7.390625 7.84375 -7.28125 7.15625 -7.28125 C 6.6875 -7.28125 6.253906 -7.296875 5.859375 -7.328125 C 5.472656 -7.367188 5.117188 -7.453125 4.796875 -7.578125 Z M 4.796875 -14.90625 "/></g></g></g><g fill="#4e2780" fill-opacity="1"><g transform="translate(175.949281, 217.019107)"><g><path d="M 11.578125 -4.6875 L 13.75 0 L 15.953125 0 L 8.546875 -15.921875 L 7.40625 -15.921875 L 0.6875 0 L 1.734375 0 L 3.734375 -4.6875 Z M 11.09375 -5.703125 L 4.15625 -5.703125 L 7.4375 -13.375 L 7.53125 -13.375 Z M 11.09375 -5.703125 "/></g></g></g><g fill="#4e2780" fill-opacity="1"><g transform="translate(195.128897, 217.019107)"><g><path d="M 2.734375 -15.921875 L 2.734375 0 L 4.796875 0 L 4.796875 -7.03125 L 5.796875 -7.03125 C 6.222656 -7.03125 6.578125 -6.988281 6.859375 -6.90625 C 7.140625 -6.832031 7.390625 -6.703125 7.609375 -6.515625 C 7.835938 -6.335938 8.050781 -6.101562 8.25 -5.8125 C 8.445312 -5.53125 8.679688 -5.175781 8.953125 -4.75 L 10.75 -2.09375 C 10.976562 -1.738281 11.203125 -1.414062 11.421875 -1.125 C 11.640625 -0.84375 11.878906 -0.597656 12.140625 -0.390625 C 12.398438 -0.191406 12.691406 -0.0351562 13.015625 0.078125 C 13.335938 0.203125 13.726562 0.265625 14.1875 0.265625 C 14.519531 0.265625 14.789062 0.25 15 0.21875 C 15.21875 0.195312 15.429688 0.125 15.640625 0 L 15.640625 -0.84375 C 15.566406 -0.820312 15.488281 -0.804688 15.40625 -0.796875 C 15.332031 -0.796875 15.257812 -0.796875 15.1875 -0.796875 C 14.863281 -0.796875 14.582031 -0.835938 14.34375 -0.921875 C 14.101562 -1.015625 13.875 -1.148438 13.65625 -1.328125 C 13.445312 -1.503906 13.242188 -1.71875 13.046875 -1.96875 C 12.847656 -2.21875 12.644531 -2.5 12.4375 -2.8125 C 11.800781 -3.738281 11.304688 -4.476562 10.953125 -5.03125 C 10.609375 -5.582031 10.332031 -6.007812 10.125 -6.3125 C 9.925781 -6.625 9.757812 -6.847656 9.625 -6.984375 C 9.5 -7.117188 9.34375 -7.234375 9.15625 -7.328125 L 8.9375 -7.4375 L 8.9375 -7.53125 C 9.664062 -7.570312 10.289062 -7.726562 10.8125 -8 C 11.332031 -8.269531 11.757812 -8.609375 12.09375 -9.015625 C 12.425781 -9.429688 12.664062 -9.878906 12.8125 -10.359375 C 12.96875 -10.835938 13.046875 -11.300781 13.046875 -11.75 C 13.046875 -12.164062 12.96875 -12.613281 12.8125 -13.09375 C 12.65625 -13.582031 12.378906 -14.035156 11.984375 -14.453125 C 11.597656 -14.867188 11.070312 -15.21875 10.40625 -15.5 C 9.738281 -15.78125 8.898438 -15.921875 7.890625 -15.921875 Z M 4.796875 -14.90625 L 7.09375 -14.90625 C 7.664062 -14.90625 8.179688 -14.820312 8.640625 -14.65625 C 9.109375 -14.488281 9.507812 -14.257812 9.84375 -13.96875 C 10.175781 -13.675781 10.425781 -13.320312 10.59375 -12.90625 C 10.769531 -12.5 10.859375 -12.054688 10.859375 -11.578125 C 10.859375 -11.160156 10.78125 -10.742188 10.625 -10.328125 C 10.46875 -9.910156 10.226562 -9.53125 9.90625 -9.1875 C 9.59375 -8.851562 9.203125 -8.578125 8.734375 -8.359375 C 8.273438 -8.148438 7.742188 -8.046875 7.140625 -8.046875 L 4.796875 -8.046875 Z M 4.796875 -14.90625 "/></g></g></g><g fill="#4e2780" fill-opacity="1"><g transform="translate(213.99039, 217.019107)"><g><path d="M 1.8125 -15.921875 L 1.8125 -6.140625 C 1.8125 -5.515625 1.875 -4.828125 2 -4.078125 C 2.125 -3.328125 2.410156 -2.628906 2.859375 -1.984375 C 3.316406 -1.335938 3.992188 -0.800781 4.890625 -0.375 C 5.785156 0.0507812 7.003906 0.265625 8.546875 0.265625 C 9.515625 0.265625 10.375 0.113281 11.125 -0.1875 C 11.875 -0.488281 12.503906 -0.90625 13.015625 -1.4375 C 13.523438 -1.96875 13.90625 -2.582031 14.15625 -3.28125 C 14.414062 -3.988281 14.546875 -4.742188 14.546875 -5.546875 L 14.546875 -15.921875 L 13.546875 -15.921875 L 13.546875 -6.296875 C 13.546875 -5.960938 13.535156 -5.625 13.515625 -5.28125 C 13.503906 -4.945312 13.460938 -4.609375 13.390625 -4.265625 C 13.316406 -3.921875 13.195312 -3.582031 13.03125 -3.25 C 12.875 -2.914062 12.644531 -2.582031 12.34375 -2.25 C 11.800781 -1.65625 11.1875 -1.253906 10.5 -1.046875 C 9.820312 -0.835938 9.109375 -0.734375 8.359375 -0.734375 C 7.722656 -0.734375 7.160156 -0.828125 6.671875 -1.015625 C 6.179688 -1.210938 5.71875 -1.507812 5.28125 -1.90625 C 4.925781 -2.207031 4.65625 -2.507812 4.46875 -2.8125 C 4.289062 -3.125 4.15625 -3.425781 4.0625 -3.71875 C 3.976562 -4.007812 3.925781 -4.304688 3.90625 -4.609375 C 3.894531 -4.910156 3.890625 -5.21875 3.890625 -5.53125 L 3.890625 -15.921875 Z M 1.8125 -15.921875 "/></g></g></g><g fill="#4e2780" fill-opacity="1"><g transform="translate(232.897333, 217.019107)"><g><path d="M 15.546875 -15.921875 L 15.546875 -3.75 L 15.453125 -3.75 L 2.84375 -16.1875 L 2.734375 -16.1875 L 2.734375 0 L 3.78125 0 L 3.78125 -12.15625 L 3.859375 -12.15625 L 16.484375 0.265625 L 16.59375 0.265625 L 16.59375 -15.921875 Z M 15.546875 -15.921875 "/></g></g></g><g fill="#4e2780" fill-opacity="1"><g transform="translate(147.164572, 187.853077)"><g><path d="M 2.96875 0.078125 C 4.046875 0.078125 4.875 -0.464844 5.300781 -1.449219 L 4.570312 -1.757812 C 4.261719 -0.953125 3.699219 -0.667969 2.988281 -0.667969 C 1.714844 -0.667969 1.195312 -1.628906 1.195312 -2.789062 C 1.195312 -3.902344 1.710938 -4.859375 2.972656 -4.859375 C 3.683594 -4.859375 4.335938 -4.582031 4.558594 -3.78125 L 5.292969 -4.085938 C 4.878906 -5.109375 4.046875 -5.609375 2.992188 -5.609375 C 1.207031 -5.609375 0.410156 -4.285156 0.410156 -2.765625 C 0.410156 -1.230469 1.226562 0.078125 2.96875 0.078125 Z M 2.96875 0.078125 "/></g></g></g><g fill="#4e2780" fill-opacity="1"><g transform="translate(153.609908, 187.853077)"><g><path d="M 0.617188 0 L 1.351562 0 L 1.351562 -1.808594 C 1.351562 -2.773438 1.78125 -3.253906 2.34375 -3.253906 C 2.515625 -3.253906 2.667969 -3.207031 2.796875 -3.109375 L 3.128906 -3.746094 C 2.964844 -3.894531 2.726562 -3.984375 2.460938 -3.984375 C 1.996094 -3.984375 1.546875 -3.703125 1.359375 -3.226562 L 1.359375 -3.902344 L 0.617188 -3.902344 Z M 0.617188 0 "/></g></g></g><g fill="#4e2780" fill-opacity="1"><g transform="translate(157.633771, 187.853077)"><g><path d="M 2.152344 0.0664062 C 2.789062 0.0664062 3.269531 -0.136719 3.695312 -0.585938 L 3.171875 -1.027344 C 2.882812 -0.710938 2.554688 -0.609375 2.152344 -0.609375 C 1.457031 -0.609375 1.125 -1.089844 1.089844 -1.703125 L 3.789062 -1.703125 C 3.800781 -1.765625 3.8125 -1.90625 3.8125 -2.035156 C 3.8125 -2.921875 3.402344 -3.96875 2.085938 -3.96875 C 0.867188 -3.96875 0.289062 -2.964844 0.289062 -1.933594 C 0.289062 -0.878906 0.890625 0.0664062 2.152344 0.0664062 Z M 1.089844 -2.277344 C 1.144531 -2.855469 1.441406 -3.339844 2.082031 -3.339844 C 2.742188 -3.339844 3.042969 -2.871094 3.078125 -2.277344 Z M 1.089844 -2.277344 "/></g></g></g><g fill="#4e2780" fill-opacity="1"><g transform="translate(162.618412, 187.853077)"><g><path d="M 1.597656 0.078125 C 2.109375 0.078125 2.585938 -0.121094 2.894531 -0.660156 L 2.933594 0 L 3.5625 0 L 3.5625 -2.382812 C 3.5625 -3.332031 2.988281 -3.984375 1.960938 -3.984375 C 1.257812 -3.984375 0.769531 -3.675781 0.410156 -3.175781 L 0.976562 -2.753906 C 1.15625 -3.03125 1.476562 -3.324219 1.980469 -3.324219 C 2.59375 -3.324219 2.851562 -2.898438 2.851562 -2.277344 L 1.902344 -2.277344 C 0.902344 -2.277344 0.261719 -1.953125 0.261719 -1.140625 C 0.261719 -0.367188 0.832031 0.078125 1.597656 0.078125 Z M 1.695312 -0.5625 C 1.308594 -0.5625 1.039062 -0.75 1.039062 -1.117188 C 1.039062 -1.507812 1.34375 -1.71875 1.957031 -1.71875 L 2.851562 -1.71875 C 2.84375 -1.15625 2.375 -0.5625 1.695312 -0.5625 Z M 1.695312 -0.5625 "/></g></g></g><g fill="#4e2780" fill-opacity="1"><g transform="translate(167.567902, 187.853077)"><g><path d="M 1.839844 0.078125 C 2.09375 0.078125 2.335938 0.0273438 2.449219 -0.0195312 L 2.449219 -0.691406 C 2.324219 -0.628906 2.148438 -0.570312 1.984375 -0.570312 C 1.71875 -0.570312 1.515625 -0.730469 1.515625 -1.132812 L 1.515625 -3.273438 L 2.503906 -3.273438 L 2.503906 -3.902344 L 1.515625 -3.902344 L 1.515625 -5.433594 L 0.773438 -4.824219 L 0.773438 -3.902344 L 0.136719 -3.902344 L 0.136719 -3.273438 L 0.765625 -3.273438 L 0.765625 -1.054688 C 0.765625 -0.367188 1.113281 0.078125 1.839844 0.078125 Z M 1.839844 0.078125 "/></g></g></g><g fill="#4e2780" fill-opacity="1"><g transform="translate(171.224638, 187.853077)"><g><path d="M 0.585938 -4.707031 L 1.402344 -4.707031 L 1.402344 -5.519531 L 0.585938 -5.519531 Z M 0.617188 0 L 1.371094 0 L 1.371094 -3.902344 L 0.617188 -3.902344 Z M 0.617188 0 "/></g></g></g><g fill="#4e2780" fill-opacity="1"><g transform="translate(174.092443, 187.853077)"><g><path d="M 1.582031 0 L 2.222656 0 L 3.738281 -3.902344 L 2.925781 -3.902344 L 1.902344 -0.980469 L 0.886719 -3.902344 L 0.0585938 -3.902344 Z M 1.582031 0 "/></g></g></g><g fill="#4e2780" fill-opacity="1"><g transform="translate(178.768542, 187.853077)"><g><path d="M 2.152344 0.0664062 C 2.789062 0.0664062 3.269531 -0.136719 3.695312 -0.585938 L 3.171875 -1.027344 C 2.882812 -0.710938 2.554688 -0.609375 2.152344 -0.609375 C 1.457031 -0.609375 1.125 -1.089844 1.089844 -1.703125 L 3.789062 -1.703125 C 3.800781 -1.765625 3.8125 -1.90625 3.8125 -2.035156 C 3.8125 -2.921875 3.402344 -3.96875 2.085938 -3.96875 C 0.867188 -3.96875 0.289062 -2.964844 0.289062 -1.933594 C 0.289062 -0.878906 0.890625 0.0664062 2.152344 0.0664062 Z M 1.089844 -2.277344 C 1.144531 -2.855469 1.441406 -3.339844 2.082031 -3.339844 C 2.742188 -3.339844 3.042969 -2.871094 3.078125 -2.277344 Z M 1.089844 -2.277344 "/></g></g></g><g fill="#4e2780" fill-opacity="1"><g transform="translate(183.753183, 187.853077)"><g/></g></g><g fill="#4e2780" fill-opacity="1"><g transform="translate(186.656138, 187.853077)"><g><path d="M 0.773438 0 L 2.261719 0 C 4.078125 0 5.09375 -0.988281 5.09375 -2.71875 C 5.09375 -4.523438 4.105469 -5.519531 2.269531 -5.519531 L 0.773438 -5.519531 Z M 1.566406 -0.726562 L 1.566406 -4.796875 L 2.253906 -4.796875 C 3.667969 -4.796875 4.300781 -4.132812 4.300781 -2.761719 C 4.300781 -1.308594 3.421875 -0.726562 2.167969 -0.726562 Z M 1.566406 -0.726562 "/></g></g></g><g fill="#4e2780" fill-opacity="1"><g transform="translate(193.031173, 187.853077)"><g><path d="M 2.152344 0.0664062 C 2.789062 0.0664062 3.269531 -0.136719 3.695312 -0.585938 L 3.171875 -1.027344 C 2.882812 -0.710938 2.554688 -0.609375 2.152344 -0.609375 C 1.457031 -0.609375 1.125 -1.089844 1.089844 -1.703125 L 3.789062 -1.703125 C 3.800781 -1.765625 3.8125 -1.90625 3.8125 -2.035156 C 3.8125 -2.921875 3.402344 -3.96875 2.085938 -3.96875 C 0.867188 -3.96875 0.289062 -2.964844 0.289062 -1.933594 C 0.289062 -0.878906 0.890625 0.0664062 2.152344 0.0664062 Z M 1.089844 -2.277344 C 1.144531 -2.855469 1.441406 -3.339844 2.082031 -3.339844 C 2.742188 -3.339844 3.042969 -2.871094 3.078125 -2.277344 Z M 1.089844 -2.277344 "/></g></g></g><g fill="#4e2780" fill-opacity="1"><g transform="translate(198.015814, 187.853077)"><g><path d="M 1.582031 0 L 2.222656 0 L 3.738281 -3.902344 L 2.925781 -3.902344 L 1.902344 -0.980469 L 0.886719 -3.902344 L 0.0585938 -3.902344 Z M 1.582031 0 "/></g></g></g><g fill="#4e2780" fill-opacity="1"><g transform="translate(202.691912, 187.853077)"><g><path d="M 2.152344 0.0664062 C 2.789062 0.0664062 3.269531 -0.136719 3.695312 -0.585938 L 3.171875 -1.027344 C 2.882812 -0.710938 2.554688 -0.609375 2.152344 -0.609375 C 1.457031 -0.609375 1.125 -1.089844 1.089844 -1.703125 L 3.789062 -1.703125 C 3.800781 -1.765625 3.8125 -1.90625 3.8125 -2.035156 C 3.8125 -2.921875 3.402344 -3.96875 2.085938 -3.96875 C 0.867188 -3.96875 0.289062 -2.964844 0.289062 -1.933594 C 0.289062 -0.878906 0.890625 0.0664062 2.152344 0.0664062 Z M 1.089844 -2.277344 C 1.144531 -2.855469 1.441406 -3.339844 2.082031 -3.339844 C 2.742188 -3.339844 3.042969 -2.871094 3.078125 -2.277344 Z M 1.089844 -2.277344 "/></g></g></g><g fill="#4e2780" fill-opacity="1"><g transform="translate(207.676553, 187.853077)"><g><path d="M 1.316406 0.078125 C 1.527344 0.078125 1.769531 0.0390625 1.929688 0 L 1.929688 -0.625 C 1.835938 -0.605469 1.703125 -0.59375 1.605469 -0.59375 C 1.410156 -0.59375 1.355469 -0.769531 1.355469 -0.832031 L 1.355469 -5.519531 L 0.597656 -5.519531 L 0.597656 -0.78125 C 0.597656 -0.210938 0.792969 0.078125 1.316406 0.078125 Z M 1.316406 0.078125 "/></g></g></g><g fill="#4e2780" fill-opacity="1"><g transform="translate(210.681054, 187.853077)"><g><path d="M 2.1875 0.078125 C 3.335938 0.078125 4.113281 -0.851562 4.113281 -1.960938 C 4.113281 -3.066406 3.335938 -3.984375 2.1875 -3.984375 C 1.035156 -3.984375 0.269531 -3.066406 0.269531 -1.960938 C 0.269531 -0.851562 1.035156 0.078125 2.1875 0.078125 Z M 2.191406 -0.5625 C 1.394531 -0.5625 1.050781 -1.242188 1.050781 -1.960938 C 1.050781 -2.675781 1.394531 -3.339844 2.191406 -3.339844 C 2.992188 -3.339844 3.332031 -2.675781 3.332031 -1.960938 C 3.332031 -1.25 2.992188 -0.5625 2.191406 -0.5625 Z M 2.191406 -0.5625 "/></g></g></g><g fill="#4e2780" fill-opacity="1"><g transform="translate(215.946898, 187.853077)"><g><path d="M 0.625 1.710938 L 1.386719 1.710938 L 1.386719 -0.46875 C 1.65625 -0.101562 2.085938 0.078125 2.542969 0.078125 C 3.605469 0.078125 4.171875 -0.859375 4.171875 -1.953125 C 4.171875 -3.058594 3.601562 -3.984375 2.535156 -3.984375 C 2.0625 -3.984375 1.648438 -3.792969 1.386719 -3.4375 L 1.386719 -3.902344 L 0.625 -3.902344 Z M 2.359375 -0.597656 C 1.632812 -0.597656 1.316406 -1.222656 1.316406 -1.953125 C 1.316406 -2.679688 1.632812 -3.320312 2.359375 -3.320312 C 3.085938 -3.320312 3.40625 -2.679688 3.40625 -1.953125 C 3.40625 -1.222656 3.085938 -0.597656 2.359375 -0.597656 Z M 2.359375 -0.597656 "/></g></g></g><g fill="#4e2780" fill-opacity="1"><g transform="translate(221.314288, 187.853077)"><g><path d="M 2.152344 0.0664062 C 2.789062 0.0664062 3.269531 -0.136719 3.695312 -0.585938 L 3.171875 -1.027344 C 2.882812 -0.710938 2.554688 -0.609375 2.152344 -0.609375 C 1.457031 -0.609375 1.125 -1.089844 1.089844 -1.703125 L 3.789062 -1.703125 C 3.800781 -1.765625 3.8125 -1.90625 3.8125 -2.035156 C 3.8125 -2.921875 3.402344 -3.96875 2.085938 -3.96875 C 0.867188 -3.96875 0.289062 -2.964844 0.289062 -1.933594 C 0.289062 -0.878906 0.890625 0.0664062 2.152344 0.0664062 Z M 1.089844 -2.277344 C 1.144531 -2.855469 1.441406 -3.339844 2.082031 -3.339844 C 2.742188 -3.339844 3.042969 -2.871094 3.078125 -2.277344 Z M 1.089844 -2.277344 "/></g></g></g><g fill="#4e2780" fill-opacity="1"><g transform="translate(226.298929, 187.853077)"><g><path d="M 0.617188 0 L 1.351562 0 L 1.351562 -1.808594 C 1.351562 -2.773438 1.78125 -3.253906 2.34375 -3.253906 C 2.515625 -3.253906 2.667969 -3.207031 2.796875 -3.109375 L 3.128906 -3.746094 C 2.964844 -3.894531 2.726562 -3.984375 2.460938 -3.984375 C 1.996094 -3.984375 1.546875 -3.703125 1.359375 -3.226562 L 1.359375 -3.902344 L 0.617188 -3.902344 Z M 0.617188 0 "/></g></g></g><path stroke-linecap="round" transform="matrix(0.75, 0, 0, 0.75, 232.485985, 184.919227)" fill="none" stroke-linejoin="miter" d="M 0.997853 0.998322 L 20.242646 0.998322 " stroke="#4e2780" stroke-width="2" stroke-opacity="1" stroke-miterlimit="4"/><path stroke-linecap="round" transform="matrix(0.75, 0, 0, 0.75, 127.151451, 185.101512)" fill="none" stroke-linejoin="miter" d="M 1.00119 1.000068 L 20.240775 1.000068 " stroke="#4e2780" stroke-width="2" stroke-opacity="1" stroke-miterlimit="4"/></svg>