<?xml version="1.0" standalone="no"?>
<!DOCTYPE svg PUBLIC "-//W3C//DTD SVG 20010904//EN"
 "http://www.w3.org/TR/2001/REC-SVG-20010904/DTD/svg10.dtd">
<svg version="1.0" xmlns="http://www.w3.org/2000/svg"
 width="4400.000000pt" height="3425.000000pt" viewBox="0 0 4400.000000 3425.000000"
 preserveAspectRatio="xMidYMid meet">
<metadata>
Created by potrace 1.16, written by Peter Selinger 2001-2019
</metadata>
<g transform="translate(0.000000,3425.000000) scale(0.100000,-0.100000)"
fill="#000000" stroke="none">
<path d="M0 17125 l0 -17125 22000 0 22000 0 0 17125 0 17125 -22000 0 -22000
0 0 -17125z m29712 12814 c29 -6 91 -29 137 -51 68 -32 101 -57 167 -122 67
-68 90 -99 128 -178 26 -52 53 -126 61 -164 12 -58 14 -418 16 -2319 2 -1736
0 -2255 -9 -2272 -7 -13 -22 -28 -35 -35 -17 -9 -465 -12 -2020 -11 l-1999 0
-21 22 -22 22 -1 2512 c0 1382 3 2528 7 2547 5 19 16 40 25 47 24 17 3483 19
3566 2z m-13300 -176 c17 -15 18 -107 18 -2525 0 -2489 0 -2508 -20 -2528 -20
-20 -40 -20 -3006 -19 l-2986 0 -24 24 -24 24 0 2501 c0 2487 0 2500 20 2520
20 20 33 20 3012 20 2769 0 2993 -1 3010 -17z m5118 -2358 c0 -23 -3 -25 -52
-25 l-53 0 0 -87 0 -88 -27 -3 -28 -3 0 88 c0 53 -5 94 -11 100 -7 7 -9 19 -6
27 5 13 23 16 92 16 84 0 85 0 85 -25z m6093 -2964 c65 -40 86 -134 46 -200
l-20 -33 21 -23 c63 -68 36 -176 -57 -224 -12 -6 -67 -11 -122 -11 l-101 0 0
254 c0 195 3 255 13 259 6 2 51 3 99 2 69 -2 94 -7 121 -24z m187 -237 l0
-255 -27 3 -28 3 -3 253 -2 252 30 0 30 0 0 -256z m-790 117 c33 -24 50 -58
50 -104 0 -29 -8 -46 -34 -75 -30 -32 -40 -37 -79 -37 -54 0 -95 26 -117 74
l-15 32 -347 -7 c-325 -6 -348 -6 -354 11 -4 10 -1 21 7 27 9 6 143 7 357 3
302 -6 342 -5 342 8 0 25 49 76 83 86 39 12 74 6 107 -18z m-13297 -32 c9 -19
47 -105 84 -193 l67 -159 23 54 c13 30 49 115 80 189 31 74 60 138 66 141 12
9 47 6 49 -4 3 -17 -207 -497 -218 -497 -12 0 -225 491 -217 502 11 18 49 -1
66 -33z m1214 29 c5 -8 9 -116 9 -253 l-1 -240 -27 -3 -28 -3 0 249 c0 137 3
252 7 255 10 11 30 8 40 -5z m-3082 -187 c44 -104 83 -186 87 -183 3 4 41 89
83 190 75 176 78 182 106 182 16 0 29 -2 29 -3 0 -20 -213 -492 -221 -492 -9
0 -193 408 -215 477 -4 14 1 18 23 18 28 0 31 -6 108 -189z m813 -61 c-3 -227
-5 -251 -20 -256 -22 -6 -38 2 -38 21 0 10 -9 8 -37 -6 -78 -40 -176 -10 -221
66 -45 78 -12 189 68 230 41 21 118 19 158 -5 l32 -20 0 110 0 110 31 0 31 0
-4 -250z m15453 188 c27 -15 47 -37 64 -72 30 -59 31 -87 6 -142 -58 -129
-231 -136 -300 -13 -61 108 19 249 142 249 32 0 63 -8 88 -22z m373 7 c27 -14
31 -14 38 0 5 8 20 15 33 15 l25 0 0 -178 c0 -167 -1 -182 -23 -222 -38 -73
-129 -108 -204 -79 -33 12 -93 67 -93 85 0 29 40 26 76 -5 50 -45 104 -43 150
3 24 24 34 43 34 64 l0 30 -37 -19 c-47 -24 -87 -24 -139 0 -92 42 -128 144
-82 231 43 79 147 114 222 75z m-17116 -69 c80 -44 81 -163 2 -210 -59 -34
-151 -6 -173 54 l-11 30 -348 0 c-341 0 -348 0 -348 20 0 20 7 20 350 20 314
0 350 2 350 16 0 9 15 31 34 50 28 28 41 34 78 34 23 -1 53 -6 66 -14z m1988
-80 c142 -85 76 -306 -91 -306 -91 0 -178 104 -161 193 23 121 146 176 252
113z m1088 21 c10 -7 16 -22 14 -33 -2 -15 -10 -18 -34 -16 -19 2 -39 -4 -55
-17 -22 -18 -24 -27 -29 -138 -5 -118 -5 -118 -30 -118 l-25 0 0 160 0 160 28
3 c20 3 27 -1 27 -14 0 -15 2 -16 18 -2 33 29 60 34 86 15z m260 -13 c36 -17
36 -17 36 2 0 11 8 14 28 12 l27 -3 0 -160 c0 -160 0 -160 -23 -163 -16 -3
-25 2 -29 16 -4 19 -5 19 -41 1 -97 -50 -221 15 -239 125 -12 75 46 162 124
186 32 10 76 4 117 -16z m-2456 -146 c-3 -155 -4 -163 -23 -163 -19 0 -20 8
-23 163 l-2 162 25 0 25 0 -2 -162z m732 132 c30 -21 69 -88 70 -117 0 -10
-35 -13 -140 -13 -154 0 -156 -1 -125 -60 38 -73 135 -79 191 -14 13 16 26 23
37 18 26 -10 20 -29 -21 -66 -67 -61 -159 -59 -219 4 -42 45 -53 70 -53 120 0
124 157 201 260 128z m1205 -135 l0 -160 -25 0 -25 0 -3 163 -3 163 28 -3 28
-3 0 -160z m25842 -525 c261 -37 444 -96 714 -231 203 -101 352 -207 528 -374
284 -271 514 -661 620 -1055 59 -217 85 -554 62 -781 -43 -417 -195 -808 -438
-1129 -43 -57 -84 -111 -91 -121 -17 -22 -122 122 834 -1146 327 -434 518
-698 533 -733 33 -77 40 -216 16 -306 -44 -164 -185 -294 -357 -330 -163 -34
-341 28 -447 155 -36 44 -1161 1542 -1279 1704 -44 60 -62 76 -77 73 -11 -2
-65 -23 -120 -46 -424 -175 -917 -207 -1381 -90 -246 62 -541 203 -759 364
-222 164 -407 355 -539 558 -201 310 -303 574 -362 933 -26 155 -26 472 0 655
56 402 215 770 474 1091 78 97 287 299 385 373 494 369 1075 520 1684 436z
m-4385 -5872 c-1 -2719 -4 -4949 -7 -4955 -3 -10 -2444 -12 -12137 -10
l-12133 2 -5 4945 c-3 2720 -4 4948 -2 4953 2 4 5467 7 12145 7 l12142 0 -3
-4942z m-28923 2027 c88 -21 151 -58 215 -125 64 -67 100 -134 116 -215 8 -44
10 -507 8 -1715 l-3 -1655 -34 -72 c-38 -81 -126 -175 -198 -212 -106 -53 44
-51 -2793 -51 -2875 0 -2680 -4 -2792 57 -100 55 -184 163 -214 277 -11 42
-14 335 -14 1696 0 1813 -3 1711 61 1812 67 104 157 171 269 200 60 16 253 17
2690 17 2308 1 2633 -1 2689 -14z m32497 -1511 c19 -9 41 -26 49 -37 14 -19
13 -22 -7 -33 -19 -10 -26 -9 -47 7 -72 57 -173 -22 -130 -102 6 -11 41 -34
77 -50 122 -55 160 -114 127 -197 -33 -81 -139 -116 -224 -73 -47 25 -80 69
-60 82 23 14 43 10 56 -11 7 -10 30 -24 52 -31 77 -23 149 40 125 108 -7 22
-29 38 -97 71 -125 61 -155 118 -104 206 39 68 114 93 183 60z m429 -14 c0
-25 -1 -25 -102 -28 l-103 -3 0 -64 0 -65 91 0 90 0 -3 -27 c-3 -28 -3 -28
-90 -31 l-88 -3 0 -104 0 -104 103 -3 c97 -3 102 -4 105 -25 3 -23 3 -23 -132
-23 l-136 0 0 248 c0 137 3 252 7 256 4 3 63 5 132 4 l126 -3 0 -25z m431 2
c48 -25 110 -91 131 -140 8 -19 14 -62 14 -95 -1 -178 -169 -297 -345 -245
-55 16 -148 109 -164 164 -35 118 3 222 110 303 59 45 180 51 254 13z m-1459
-107 c61 -17 90 -102 58 -165 -43 -82 -179 -77 -215 9 l-12 31 -349 0 c-304 0
-349 2 -349 15 0 13 45 15 349 15 l349 0 12 29 c15 37 40 60 76 71 29 8 38 7
81 -5z m-35669 -3267 c-3 -22 -8 -23 -106 -26 l-103 -3 3 -67 3 -67 88 -3 c78
-2 87 -5 87 -22 0 -17 -9 -20 -87 -22 l-88 -3 -3 -107 -3 -108 106 0 105 0 0
-25 0 -26 -127 3 -128 3 -3 248 -2 247 131 0 c130 0 130 0 127 -22z m1642
-228 l0 -250 -25 0 -24 0 0 242 c0 133 2 245 5 250 3 4 14 8 25 8 18 0 19 -9
19 -250z m-928 42 c19 -18 20 -18 66 5 73 38 132 20 168 -49 10 -18 14 -62 14
-138 l0 -110 -25 0 -25 0 0 112 c0 101 -2 114 -22 135 -27 29 -67 30 -102 2
-25 -20 -26 -23 -26 -135 l0 -114 -25 0 -25 0 0 115 c0 105 -2 116 -22 135
-24 22 -65 26 -89 7 -31 -24 -39 -56 -39 -156 0 -94 -1 -101 -20 -101 -19 0
-20 7 -20 155 0 146 1 155 19 155 11 0 21 -5 23 -11 2 -6 14 -4 33 6 36 19 91
13 117 -13z m546 8 c34 -16 42 -16 42 -5 0 9 10 15 25 15 l25 0 0 -155 0 -155
-25 0 c-15 0 -25 6 -25 15 0 12 -7 11 -40 -6 -104 -55 -230 24 -230 143 0 127
113 200 228 148z m242 -145 l0 -155 -25 0 -25 0 0 155 0 155 25 0 25 0 0 -155z
m-2080 122 c32 -16 70 -73 70 -106 0 -37 -34 -87 -71 -107 -57 -29 -119 -7
-159 59 l-17 27 -344 3 c-298 2 -344 4 -344 17 0 13 46 15 348 18 200 1 347 6
347 11 0 16 52 72 74 81 31 13 68 11 96 -3z m1018 -119 c3 -17 -11 -18 -187
-18 -185 0 -191 1 -191 20 0 20 5 20 187 18 170 -3 188 -5 191 -20z m29642
-2783 c19 -23 102 -1070 87 -1108 -16 -41 -50 -31 -213 63 l-159 91 -35 -43
c-247 -299 -447 -487 -695 -650 -298 -197 -637 -319 -1030 -369 -130 -17 -597
-17 -730 0 -348 44 -773 125 -822 156 -16 11 -23 25 -23 45 0 48 27 54 151 35
143 -22 521 -31 685 -16 611 57 1094 241 1484 567 97 80 250 237 330 339 72
91 180 254 180 271 0 11 -68 59 -228 161 -58 38 -67 51 -58 87 6 25 22 33 211
99 55 20 260 92 455 161 195 69 365 125 376 126 12 0 27 -7 34 -15z m2203
-836 c14 -6 30 -23 37 -37 9 -20 11 -624 11 -2551 l-1 -2525 -25 -26 -25 -25
-3151 0 -3151 0 -19 24 c-29 36 -25 95 7 120 l27 21 3088 0 3089 0 0 2470 c0
1793 3 2476 11 2494 18 40 60 54 102 35z m-16518 -111 c16 -7 29 -24 36 -47 7
-25 9 -831 7 -2518 l-3 -2482 -23 -23 -23 -23 -4016 -2 -4016 -1 -23 23 -24
24 0 2506 0 2506 25 24 24 25 4005 0 c3026 0 4011 -3 4031 -12z m16042 -592
l28 -24 3 -1896 2 -1897 -26 -25 -25 -26 -717 6 c-664 6 -718 8 -735 24 -17
17 -17 113 -17 1917 l0 1900 25 23 26 22 704 0 704 0 28 -24z m-2015 -954 c16
-16 17 -120 19 -1439 2 -1365 2 -1423 -16 -1443 -18 -20 -29 -20 -732 -20
-700 0 -713 0 -733 20 -20 20 -20 33 -20 1443 0 1358 1 1425 18 1440 24 22
158 25 877 20 514 -4 572 -6 587 -21z m-2138 -3831 c78 -19 135 -107 120 -187
-6 -34 -51 -91 -87 -111 -17 -9 -14 -19 42 -131 34 -67 61 -124 61 -128 0 -3
-12 -4 -27 -2 -25 3 -36 18 -91 126 l-63 122 -49 0 -49 0 -3 -122 -3 -123 -25
0 -25 0 -3 270 c-1 148 0 275 3 282 5 15 138 18 199 4z m-18648 -268 c36 -76
79 -167 96 -202 l29 -63 35 72 34 72 -60 125 c-33 69 -60 127 -60 129 0 2 13
4 29 4 26 0 32 -7 72 -95 24 -52 46 -95 49 -95 3 0 25 43 49 95 40 88 46 95
72 95 16 0 29 -2 29 -4 0 -2 -27 -60 -60 -129 l-61 -125 33 -66 c18 -36 35
-66 38 -66 3 1 47 88 99 195 83 170 97 195 118 195 13 0 23 -4 23 -10 0 -5
-25 -62 -56 -127 -31 -65 -83 -173 -115 -240 -32 -68 -63 -123 -69 -123 -5 0
-29 38 -52 85 -23 47 -45 85 -48 85 -3 0 -25 -38 -48 -85 -23 -47 -46 -85 -50
-85 -9 0 -242 471 -242 489 0 6 11 11 25 11 22 0 32 -16 91 -137z m944 26 c0
-102 1 -111 18 -104 62 27 98 35 126 29 85 -18 143 -96 133 -181 -12 -113
-140 -180 -235 -123 -39 24 -42 24 -42 5 0 -8 -9 -15 -20 -15 -19 0 -20 7 -20
250 0 243 1 250 20 250 19 0 20 -7 20 -111z m17061 96 c41 -22 69 -71 69 -122
0 -82 -89 -148 -167 -123 -48 16 -72 37 -89 77 l-14 33 -393 2 c-341 3 -392 5
-392 18 0 13 51 15 393 18 l393 2 8 23 c5 13 25 38 45 55 42 37 96 43 147 17z
m1061 -65 c5 0 25 -16 47 -35 76 -69 81 -183 10 -260 -111 -120 -296 -60 -316
103 -3 27 0 65 6 84 26 78 130 136 211 117 19 -5 38 -9 42 -9z m-17272 -49 c0
-46 1 -49 31 -55 25 -5 30 -10 27 -28 -2 -17 -11 -24 -30 -26 l-28 -3 0 -130
0 -129 -25 0 -25 0 0 130 0 130 -31 0 c-27 0 -30 3 -27 28 2 21 8 27 28 27 23
0 25 4 28 53 3 48 5 52 28 52 22 0 24 -4 24 -49z m17520 -126 l0 -175 -25 0
-25 0 0 175 0 175 25 0 25 0 0 -175z m-18584 54 c47 -22 81 -67 86 -114 l3
-30 -137 -3 c-86 -2 -138 -6 -138 -13 0 -5 7 -23 15 -39 39 -75 133 -82 190
-14 19 22 23 23 40 10 20 -14 20 -15 -1 -43 -47 -64 -160 -82 -221 -37 -52 39
-68 71 -68 137 0 75 27 120 89 148 53 24 90 24 142 -2z m704 6 c17 -9 30 -17
30 -19 0 -3 3 -11 6 -19 7 -20 -34 -29 -59 -12 -20 14 -46 10 -59 -9 -18 -26
-5 -44 53 -71 94 -46 112 -105 47 -160 -43 -36 -98 -34 -140 5 -32 29 -32 31
-14 45 18 13 22 13 41 -5 39 -36 102 -18 93 27 -2 10 -28 29 -60 45 -31 15
-62 36 -67 47 -20 37 -13 81 18 112 33 33 67 37 111 14z m705 -19 c40 -31 65
-73 65 -111 l0 -25 -135 0 c-146 0 -148 -1 -123 -55 15 -33 56 -55 104 -55 29
0 44 7 68 33 26 28 36 32 54 26 19 -7 21 -12 13 -28 -15 -27 -69 -70 -97 -77
-42 -11 -110 2 -144 26 -37 26 -69 90 -70 136 0 17 10 50 23 74 47 89 163 116
242 56z m-517 -56 c2 -41 0 -112 -3 -158 -6 -78 -8 -83 -28 -80 -21 3 -22 8
-25 161 l-3 158 28 -3 c27 -3 28 -4 31 -78z m-1932 36 c27 -27 34 -42 34 -75
0 -54 -17 -87 -57 -112 -61 -38 -148 -8 -174 58 l-8 23 -348 2 c-322 3 -348 4
-351 21 -3 16 19 17 347 17 l350 0 17 35 c21 44 56 64 113 65 36 0 49 -6 77
-34z"/>
<path d="M26260 27376 l0 -2424 143 -4 c78 -2 937 -1 1910 0 l1767 4 0 1919 0
1919 -213 0 c-237 0 -288 8 -389 62 -152 81 -249 220 -297 424 -18 79 -21 122
-21 308 l0 216 -1450 0 -1450 0 0 -2424z m3018 885 c2 -134 -1 -198 -9 -207
-10 -12 -186 -14 -1094 -14 -596 0 -1090 3 -1099 6 -14 5 -16 33 -16 203 0
109 3 201 7 204 3 4 502 6 1107 5 l1101 -3 3 -194z m-9 -865 c7 -9 12 -78 13
-201 1 -173 0 -189 -17 -201 -29 -21 -2162 -21 -2191 0 -18 14 -19 26 -16 202
1 119 6 192 13 201 17 20 2181 19 2198 -1z m11 -1072 c6 -14 10 -98 10 -187 0
-131 -3 -167 -16 -185 l-15 -22 -1089 0 -1089 0 -15 22 c-13 18 -16 55 -16
191 0 97 4 177 10 188 10 19 33 19 1111 19 l1099 0 10 -26z"/>
<path d="M27130 28250 l0 -130 1040 0 1040 0 0 130 0 130 -1040 0 -1040 0 0
-130z"/>
<path d="M27130 27198 l0 -128 1040 0 1040 0 0 125 0 125 -462 0 c-255 0 -723
1 -1041 2 l-577 3 0 -127z"/>
<path d="M27130 26140 l0 -130 1040 0 1040 0 0 130 0 130 -1040 0 -1040 0 0
-130z"/>
<path d="M29303 29578 c3 -162 9 -239 21 -283 39 -144 125 -258 233 -312 58
-28 58 -28 291 -31 l232 -3 0 178 c0 209 -13 284 -67 393 -68 140 -200 242
-347 269 -33 6 -129 11 -214 11 l-154 0 5 -222z"/>
<path d="M10500 29400 l0 -260 2900 0 2900 0 0 260 0 260 -2900 0 -2900 0 0
-260z m4647 73 c12 -8 29 -30 38 -50 33 -68 -15 -149 -92 -160 -105 -14 -174
106 -107 186 40 48 108 58 161 24z m426 -23 c20 -23 27 -40 27 -73 0 -74 -58
-124 -133 -114 -77 10 -120 85 -91 157 34 84 134 99 197 30z m394 19 c42 -35
54 -102 27 -149 -39 -66 -121 -79 -178 -29 -56 49 -58 127 -5 174 37 34 117
36 156 4z"/>
<path d="M11638 29073 l-1138 -3 0 -2125 0 -2125 2900 0 2900 0 0 2125 0 2125
-1538 0 c-846 0 -1640 1 -1763 3 -123 2 -736 2 -1361 0z"/>
<path d="M27450 24320 l0 -80 70 0 c57 0 74 4 90 20 26 26 26 80 -1 114 -19
24 -27 26 -90 26 l-69 0 0 -80z"/>
<path d="M27450 24094 l0 -86 74 4 c93 4 116 21 116 84 0 63 -31 84 -121 84
l-69 0 0 -86z"/>
<path d="M12454 24080 c-37 -15 -64 -59 -64 -104 0 -50 21 -83 66 -102 93 -39
180 54 140 150 -22 53 -87 78 -142 56z"/>
<path d="M27965 24187 c-37 -37 -44 -71 -25 -121 20 -53 98 -76 154 -47 39 22
61 76 47 121 -15 50 -41 71 -95 77 -42 5 -48 3 -81 -30z"/>
<path d="M28375 24211 c-48 -20 -73 -81 -55 -136 28 -84 154 -94 194 -16 26
50 21 88 -18 127 -35 35 -75 43 -121 25z"/>
<path d="M13219 24067 c-86 -58 -70 -168 29 -196 49 -14 94 4 125 49 35 51 10
131 -48 156 -47 19 -67 18 -106 -9z"/>
<path d="M14583 24070 c-38 -23 -53 -48 -53 -90 0 -67 43 -110 110 -110 48 0
79 18 99 57 27 53 0 126 -54 149 -45 19 -64 18 -102 -6z"/>
<path d="M39590 23294 c-314 -29 -518 -82 -755 -193 -265 -125 -526 -328 -720
-561 -132 -158 -264 -387 -340 -590 -44 -117 -111 -386 -125 -500 -13 -109
-13 -362 1 -470 53 -433 218 -790 533 -1157 364 -424 931 -673 1531 -673 319
0 654 74 907 201 43 22 83 39 91 39 14 0 4 14 421 -538 167 -222 307 -404 309
-405 7 -3 476 303 482 314 3 4 -83 127 -192 272 -109 145 -241 321 -293 392
-52 71 -130 174 -173 228 l-79 99 41 46 c261 295 412 572 501 916 81 314 81
700 0 1018 -127 499 -419 912 -860 1219 -227 158 -477 258 -780 313 -154 28
-376 41 -500 30z m278 -504 c259 -27 485 -107 697 -244 94 -62 239 -182 311
-257 180 -192 316 -452 380 -724 27 -112 29 -134 29 -340 0 -194 -3 -232 -23
-323 -73 -328 -236 -619 -453 -813 -198 -176 -351 -271 -573 -353 -181 -68
-261 -81 -516 -81 -258 0 -314 9 -507 79 -282 103 -482 236 -676 451 -189 211
-312 458 -366 737 -161 837 374 1652 1207 1837 167 38 329 48 490 31z"/>
<path d="M39588 22620 c-312 -28 -603 -161 -835 -383 -208 -199 -344 -443
-409 -732 -24 -110 -30 -388 -10 -510 20 -118 79 -302 132 -406 180 -360 556
-661 917 -734 203 -41 446 -45 612 -10 182 38 363 114 525 221 284 187 497
513 577 886 26 118 25 429 0 546 -80 365 -299 697 -583 884 -54 36 -130 81
-169 100 -75 38 -256 99 -345 117 -57 11 -269 32 -305 30 -11 -1 -59 -5 -107
-9z"/>
<path d="M11643 22472 l-233 -2 0 -4905 0 -4905 63 -2 c169 -4 23443 -4 23765
0 l372 5 0 4903 0 4904 -657 2 c-1157 2 -23069 3 -23310 0z m6787 -1652 c391
-34 659 -196 803 -485 39 -79 91 -228 85 -246 -3 -9 -259 -88 -289 -89 -3 0
-11 19 -18 43 -7 23 -35 88 -62 144 -41 84 -62 113 -119 167 -79 74 -189 132
-310 162 -110 28 -362 26 -480 -3 -359 -90 -570 -348 -635 -778 -36 -241 -3
-529 84 -720 72 -158 202 -294 354 -369 151 -74 246 -98 422 -103 172 -6 269
8 413 58 113 40 267 119 320 165 l42 36 -2 226 -3 227 -368 3 -368 2 3 148 3
147 528 3 527 2 0 -469 0 -470 -82 -59 c-213 -151 -423 -247 -658 -298 -121
-27 -478 -27 -597 -1 -316 70 -562 215 -721 426 -116 154 -197 349 -234 566
-17 103 -19 148 -15 315 6 207 16 274 68 437 82 255 211 447 390 583 170 127
400 210 644 230 133 11 150 11 275 0z m-3724 -45 c332 -15 561 -122 740 -348
172 -217 258 -514 258 -887 -1 -279 -43 -495 -138 -696 -60 -126 -115 -205
-210 -299 -125 -123 -254 -190 -462 -236 -95 -21 -123 -23 -681 -26 l-583 -4
0 1256 0 1256 483 -6 c265 -3 532 -7 593 -10z m1844 -1245 l0 -1250 -167 2
-167 3 -3 1235 c-2 679 -1 1241 2 1247 3 10 46 13 170 13 l165 0 0 -1250z
m3690 0 l0 -1250 -165 0 -165 0 -2 483 c-2 265 -2 827 0 1250 l2 767 165 0
165 0 0 -1250z m2380 1100 l0 -150 -415 0 -415 0 0 -1100 0 -1100 -165 0 -165
0 0 478 c0 262 0 757 0 1099 l1 623 -413 2 -413 3 -3 148 -3 147 996 0 995 0
0 -150z m1160 68 c18 -46 246 -604 507 -1241 260 -638 473 -1163 473 -1168 0
-5 -81 -9 -187 -9 l-188 0 -141 373 -141 372 -527 3 -526 2 -11 -27 c-6 -16
-67 -183 -135 -372 -68 -190 -126 -346 -128 -348 -2 -2 -82 -2 -178 -1 l-174
3 121 315 c67 173 239 621 383 995 143 374 295 770 337 880 42 110 86 224 97
253 l19 52 183 0 182 0 34 -82z m1570 -1018 l0 -1100 615 0 615 0 0 -150 0
-150 -780 0 -780 0 0 1250 0 1250 165 0 165 0 0 -1100z m7800 -3075 c323 -72
523 -213 645 -454 37 -74 95 -226 95 -250 0 -14 -9 -21 -32 -26 -18 -4 -80
-20 -137 -36 -58 -16 -110 -29 -117 -29 -6 0 -22 28 -34 63 -48 130 -98 213
-175 286 -152 144 -367 205 -638 181 -177 -16 -312 -65 -452 -164 -216 -155
-345 -464 -345 -832 0 -339 77 -569 250 -744 185 -189 494 -287 786 -250 182
23 375 93 522 190 l82 54 0 233 0 233 -365 0 -365 0 0 150 0 150 530 0 530 0
0 -467 0 -468 -53 -37 c-238 -170 -475 -277 -717 -324 -129 -25 -417 -25 -545
-1 -271 52 -487 161 -665 336 -143 140 -258 371 -312 624 -28 136 -31 431 -5
582 48 271 174 534 335 694 175 175 373 269 661 316 116 19 417 13 521 -10z
m-18673 -1075 c194 -580 354 -1059 356 -1065 2 -5 47 119 99 275 53 157 153
449 222 650 70 201 191 552 270 780 l143 415 227 3 226 2 0 -1255 0 -1255
-162 2 -163 3 -5 1029 -5 1029 -147 -424 c-235 -675 -268 -768 -303 -869 -18
-52 -83 -239 -143 -415 -60 -176 -113 -328 -117 -338 -7 -16 -22 -17 -158 -15
l-150 3 -228 665 c-125 366 -285 835 -355 1042 -71 207 -130 375 -131 374 -2
-1 -4 -471 -5 -1044 l-2 -1042 -163 0 -163 0 0 1255 0 1255 252 -2 252 -3 353
-1055z m3216 815 c100 -243 414 -1012 557 -1360 42 -104 141 -346 219 -536 77
-191 141 -352 141 -358 0 -8 -52 -11 -186 -9 l-186 3 -100 260 c-54 143 -120
313 -145 378 l-45 117 -525 -2 -525 -3 -20 -55 c-10 -30 -36 -102 -58 -160
-21 -58 -73 -203 -115 -322 l-78 -218 -179 0 c-168 0 -180 1 -173 18 4 9 19
51 35 92 15 41 65 170 110 285 117 301 141 364 316 820 142 373 281 734 433
1125 31 80 60 151 64 158 7 9 51 12 185 10 l176 -3 99 -240z m2553 234 c252
-28 394 -98 504 -247 155 -209 182 -502 69 -731 -88 -179 -258 -298 -503 -356
l-116 -28 78 -45 c92 -54 212 -172 297 -292 33 -46 114 -168 180 -271 66 -103
168 -262 228 -354 59 -91 107 -168 107 -171 0 -2 -95 -3 -212 -2 l-212 3 -105
167 c-59 92 -145 230 -193 307 -227 360 -373 532 -505 594 l-68 32 -294 3
-293 3 2 -378 c1 -208 2 -458 1 -555 l-1 -178 -165 0 -165 0 0 1255 0 1255
635 0 c384 0 674 -4 731 -11z m1475 -606 c-1 -337 0 -613 4 -613 4 0 282 277
619 615 l613 615 226 0 c125 0 227 -4 227 -8 0 -4 -96 -100 -212 -212 -117
-112 -283 -271 -368 -354 -85 -83 -224 -217 -308 -298 l-152 -147 242 -330
c134 -182 277 -376 318 -432 41 -55 100 -135 130 -178 30 -42 107 -146 170
-231 63 -85 141 -191 173 -235 l57 -80 -217 -3 c-197 -2 -219 -1 -234 15 -9
10 -55 74 -103 143 -47 69 -130 187 -183 263 -54 77 -109 155 -123 175 -13 21
-79 114 -145 207 -67 94 -166 234 -220 313 -54 78 -102 141 -106 140 -3 -2
-97 -91 -209 -198 l-202 -195 5 -395 c2 -217 2 -412 0 -433 l-5 -37 -166 2
-166 3 -3 1253 -4 1252 173 -2 173 -3 -4 -612z m3829 467 l0 -150 -735 0 -735
0 0 -380 0 -380 690 0 690 0 0 -150 0 -150 -692 -2 -693 -3 0 -420 0 -420 768
-3 767 -2 0 -150 0 -150 -935 0 -935 0 -2 1251 c-2 688 -1 1253 1 1255 2 2
411 4 908 4 l903 0 0 -150z m2310 0 l0 -150 -410 0 -410 0 -2 -692 c-2 -381
-2 -879 0 -1105 l3 -413 -170 0 -171 0 0 1105 0 1105 -415 0 -415 0 0 150 0
150 995 0 995 0 0 -150z m734 -1105 l-1 -1250 -168 0 -169 0 2 800 c1 440 1
1004 2 1253 l0 452 168 -2 167 -3 -1 -1250z m1002 1132 c44 -67 337 -506 650
-975 l569 -854 5 974 5 973 158 3 157 3 0 -1256 0 -1255 -170 0 -169 0 -653
977 -653 978 -3 -978 -2 -977 -160 0 -160 0 0 1255 0 1255 173 0 172 0 81
-123z"/>
<path d="M13970 19530 l0 -951 393 4 c362 3 398 5 474 25 196 51 322 156 407
336 75 160 105 302 113 536 14 405 -68 662 -269 844 -34 31 -90 70 -123 87
-116 56 -161 62 -597 66 l-398 5 0 -952z"/>
<path d="M23531 20402 c-40 -166 -141 -455 -378 -1079 -4 -10 83 -13 417 -13
398 0 422 1 415 18 -64 162 -348 932 -381 1032 -25 74 -46 135 -48 137 -1 1
-13 -41 -25 -95z"/>
<path d="M17382 16216 c-40 -172 -78 -284 -352 -1016 -15 -41 -26 -78 -23 -82
5 -9 833 -11 833 -3 0 3 -72 197 -161 433 -88 235 -186 501 -216 592 -31 91
-57 166 -58 167 -1 2 -11 -39 -23 -91z"/>
<path d="M19215 16298 c-3 -7 -4 -193 -3 -413 l3 -399 425 1 c477 0 564 9 676
63 200 97 277 327 179 527 -55 111 -127 165 -273 205 -72 20 -108 22 -539 26
-381 3 -464 1 -468 -10z"/>
<path d="M1500 19460 c-114 -5 -129 -7 -177 -34 -29 -16 -61 -38 -70 -48 -17
-19 -17 -21 9 -41 14 -12 187 -155 384 -318 198 -162 654 -538 1014 -834 761
-626 790 -650 1055 -869 175 -146 208 -169 264 -186 77 -24 107 -25 182 -4 65
18 72 24 584 446 165 136 458 376 650 534 193 158 476 391 630 518 154 126
368 302 475 390 257 211 359 296 366 308 12 19 -48 78 -109 107 l-62 31 -2535
2 c-1394 2 -2591 1 -2660 -2z"/>
<path d="M1178 19133 c-2 -38 -5 -756 -6 -1598 -3 -1488 0 -1635 26 -1635 8 0
56 40 1246 1019 l759 624 -44 41 c-25 23 -384 320 -799 661 -415 341 -846 695
-958 788 -111 92 -207 167 -212 167 -4 0 -10 -30 -12 -67z"/>
<path d="M6758 19042 c-79 -65 -361 -298 -628 -517 -894 -735 -1145 -943
-1163 -963 -18 -20 -14 -23 236 -228 227 -187 1036 -854 1512 -1246 99 -81
182 -148 186 -148 3 0 9 24 13 53 10 88 7 3167 -4 3167 -5 0 -73 -53 -152
-118z"/>
<path d="M2804 17013 c-1292 -1062 -1504 -1237 -1504 -1243 0 -3 17 -15 38
-26 36 -19 89 -19 2697 -22 l2660 -2 63 31 c34 16 62 36 61 42 0 10 -325 279
-1688 1396 -157 129 -292 238 -298 244 -14 10 -63 -27 -338 -253 -88 -73 -178
-142 -200 -155 -130 -75 -325 -72 -451 7 -22 14 -130 100 -240 190 -208 170
-268 218 -275 218 -3 0 -239 -192 -525 -427z"/>
<path d="M39885 18035 c-146 -78 -161 -271 -29 -355 56 -35 107 -45 166 -30
87 22 158 110 158 196 0 58 -44 140 -93 172 -50 34 -155 42 -202 17z"/>
<path d="M4088 14483 c-67 -42 -72 -130 -12 -183 39 -34 78 -39 124 -15 66 34
82 120 32 176 -35 39 -102 49 -144 22z"/>
<path d="M10780 10275 l0 -255 3925 0 3925 0 -2 253 -3 252 -3922 3 -3923 2 0
-255z m6700 80 c55 -28 75 -101 44 -155 -62 -103 -214 -61 -214 60 0 42 15 67
53 90 38 24 78 25 117 5z m420 -12 c55 -50 56 -125 4 -174 -20 -19 -36 -24
-76 -24 -43 0 -53 4 -79 33 -23 26 -29 42 -29 78 0 39 5 51 34 80 45 45 101
48 146 7z m390 12 c41 -21 60 -53 60 -100 0 -121 -163 -158 -215 -49 -18 38
-19 51 -4 93 21 61 98 88 159 56z"/>
<path d="M10781 7830 l1 -2120 3924 0 3924 0 -2 2118 -3 2117 -3923 3 -3922 2
1 -2120z m7597 -226 l2 -1282 -1032 -6 c-568 -4 -1163 -6 -1323 -4 l-290 3 -3
1265 c-1 696 0 1275 3 1288 l5 22 1318 -2 1317 -3 3 -1281z m-2899 1200 c2 -2
1 -10 -2 -19 -6 -13 -201 -15 -1909 -13 -1801 3 -1903 4 -1906 20 -3 17 49 18
950 20 1010 3 2860 -2 2867 -8z m0 -620 c2 -2 1 -10 -2 -19 -6 -13 -229 -15
-2165 -15 -1900 0 -2161 2 -2172 15 -10 12 -10 16 1 20 29 11 4326 10 4338 -1z
m0 -620 c2 -2 1 -11 -3 -20 -6 -15 -166 -16 -2169 -9 -1264 3 -2166 10 -2171
15 -6 6 -4 11 5 15 29 11 4325 10 4338 -1z m8 -618 c3 -3 3 -12 0 -21 -6 -13
-229 -15 -2169 -15 -1337 0 -2169 4 -2178 10 -10 6 -12 12 -4 20 7 7 354 11
1064 13 1414 4 3280 0 3287 -7z m1 -589 c2 -9 0 -17 -5 -18 -48 -5 -4335 -4
-4344 2 -7 4 -9 14 -6 22 5 12 281 14 2179 13 2041 -2 2173 -3 2176 -19z"/>
<path d="M15752 7605 l2 -1265 531 0 c291 0 878 -3 1303 -7 l772 -6 0 1271 0
1272 -1306 0 -1305 0 3 -1265z m971 773 c22 -123 52 -289 68 -370 33 -170 83
-449 98 -558 6 -41 22 -133 36 -205 47 -239 83 -459 79 -467 -3 -4 -70 -8
-150 -8 -140 0 -145 1 -154 23 -5 12 -21 99 -35 192 -14 94 -28 178 -31 188
-5 15 -21 17 -155 17 l-149 0 0 -26 c0 -30 -59 -375 -66 -386 -7 -11 -292 -10
-298 0 -5 8 57 368 83 485 6 23 24 128 41 232 17 105 49 280 70 390 22 110 55
292 75 405 20 113 40 229 46 258 l10 52 197 0 197 0 38 -222z m1119 202 c121
-37 232 -139 279 -257 l24 -58 3 -538 c2 -329 -1 -560 -7 -593 -30 -160 -176
-309 -336 -342 -27 -6 -165 -12 -305 -13 l-255 -2 -2 299 c-1 164 0 575 4 912
l5 612 263 0 c234 0 270 -2 327 -20z"/>
<path d="M16476 8130 c-3 -19 -17 -123 -31 -230 -14 -107 -33 -248 -43 -312
l-18 -118 103 0 c102 0 103 0 98 23 -5 24 -57 388 -76 537 -15 121 -24 149
-33 100z"/>
<path d="M17530 7685 l0 -635 114 0 c101 0 117 2 147 23 18 12 44 38 56 56
l23 34 0 522 0 522 -23 34 c-12 18 -38 44 -56 56 -30 21 -46 23 -147 23 l-114
0 0 -635z"/>
<path d="M33437 9933 c-4 -3 -7 -809 -7 -1790 l0 -1783 605 0 605 0 0 1790 0
1790 -598 0 c-329 0 -602 -3 -605 -7z"/>
<path d="M31410 7673 c0 -868 3 -1313 10 -1313 6 -1 46 -1 90 -1 44 0 314 0
600 1 l520 0 0 1315 0 1315 -610 -2 -610 -2 0 -1313z"/>
<path d="M30470 5124 l0 -106 76 4 c71 3 78 6 105 36 33 37 37 77 14 122 -21
41 -43 50 -124 50 l-71 0 0 -106z"/>
<path d="M12984 4910 c-28 -11 -61 -54 -69 -89 -14 -64 44 -135 111 -135 69 0
114 48 114 121 0 80 -81 134 -156 103z"/>
<path d="M30878 4997 c-54 -45 -64 -111 -25 -168 32 -48 91 -68 143 -48 95 36
113 168 30 223 -38 24 -115 21 -148 -7z"/>
</g>
</svg>
