<?xml version="1.0" encoding="iso-8859-1"?>
<!-- Uploaded to: SVG Repo, www.svgrepo.com, Generator: SVG Repo Mixer Tools -->
<svg fill="#000000" version="1.1" id="Layer_1" xmlns="http://www.w3.org/2000/svg" xmlns:xlink="http://www.w3.org/1999/xlink" 
	 viewBox="0 0 512 512" xml:space="preserve">
<g>
	<g>
		<path d="M493.526,0H18.474C8.288,0,0,8.288,0,18.474v475.052C0,503.712,8.288,512,18.474,512h475.052
			c10.186,0,18.474-8.288,18.474-18.474V18.474C512,8.288,503.712,0,493.526,0z M496.165,493.526c0,1.43-1.209,2.639-2.639,2.639
			H18.474c-1.43,0-2.639-1.209-2.639-2.639V18.474c0-1.43,1.209-2.639,2.639-2.639h475.052c1.43,0,2.639,1.209,2.639,2.639V493.526z
			"/>
	</g>
</g>
<g>
	<g>
		<path d="M89.732,147.794v216.412h332.536V147.794H89.732z M290.309,348.371H105.567V163.629h184.742V348.371z M406.433,348.371
			H306.144V163.629h100.289V348.371z"/>
	</g>
</g>
<g>
	<g>
		<polygon points="52.784,110.845 52.784,171.546 68.619,171.546 68.619,126.68 108.206,126.68 108.206,110.845 		"/>
	</g>
</g>
<g>
	<g>
		<polygon points="403.794,110.845 403.794,126.68 443.381,126.68 443.381,171.546 459.216,171.546 459.216,110.845 		"/>
	</g>
</g>
<g>
	<g>
		<polygon points="443.381,340.454 443.381,385.32 403.794,385.32 403.794,401.155 459.216,401.155 459.216,340.454 		"/>
	</g>
</g>
<g>
	<g>
		<polygon points="68.619,385.32 68.619,340.454 52.784,340.454 52.784,401.155 108.206,401.155 108.206,385.32 		"/>
	</g>
</g>
<g>
	<g>
		<rect x="50.144" y="443.381" width="205.856" height="15.835"/>
	</g>
</g>
<g>
	<g>
		<rect x="435.464" y="443.381" width="26.392" height="15.835"/>
	</g>
</g>
<g>
	<g>
		<rect x="382.68" y="443.381" width="26.392" height="15.835"/>
	</g>
</g>
<g>
	<g>
		<rect x="329.897" y="443.381" width="26.392" height="15.835"/>
	</g>
</g>
<g>
	<g>
		<rect x="92.371" y="63.34" width="26.392" height="15.835"/>
	</g>
</g>
<g>
	<g>
		<rect x="435.464" y="63.34" width="26.392" height="15.835"/>
	</g>
</g>
<g>
	<g>
		<rect x="50.144" y="63.34" width="26.392" height="15.835"/>
	</g>
</g>
<g>
	<g>
		<polygon points="126.68,184.742 126.68,224.33 142.515,224.33 142.515,200.577 160.99,200.577 160.99,184.742 		"/>
	</g>
</g>
<g>
	<g>
		<polygon points="327.258,184.742 327.258,224.33 343.093,224.33 343.093,200.577 361.567,200.577 361.567,184.742 		"/>
	</g>
</g>
</svg>